<svg width="31" height="31" viewBox="0 0 31 31" fill="none" xmlns="http://www.w3.org/2000/svg">
<path d="M15.31 23.25C14.7796 23.25 14.2709 23.0393 13.8958 22.6642C13.5207 22.2891 13.31 21.7804 13.31 21.25C13.31 20.7196 13.5207 20.2109 13.8958 19.8358C14.2709 19.4607 14.7796 19.25 15.31 19.25C15.8404 19.25 16.3491 19.4607 16.7242 19.8358C17.0993 20.2109 17.31 20.7196 17.31 21.25C17.31 21.7804 17.0993 22.2891 16.7242 22.6642C16.3491 23.0393 15.8404 23.25 15.31 23.25ZM15.31 17.25C14.7796 17.25 14.2709 17.0393 13.8958 16.6642C13.5207 16.2891 13.31 15.7804 13.31 15.25C13.31 14.7196 13.5207 14.2109 13.8958 13.8358C14.2709 13.4607 14.7796 13.25 15.31 13.25C15.8404 13.25 16.3491 13.4607 16.7242 13.8358C17.0993 14.2109 17.31 14.7196 17.31 15.25C17.31 15.7804 17.0993 16.2891 16.7242 16.6642C16.3491 17.0393 15.8404 17.25 15.31 17.25ZM13.31 9.25C13.31 9.78043 13.5207 10.2891 13.8958 10.6642C14.2709 11.0393 14.7796 11.25 15.31 11.25C15.8404 11.25 16.3491 11.0393 16.7242 10.6642C17.0993 10.2891 17.31 9.78043 17.31 9.25C17.31 8.71957 17.0993 8.21086 16.7242 7.83579C16.3491 7.46071 15.8404 7.25 15.31 7.25C14.7796 7.25 14.2709 7.46071 13.8958 7.83579C13.5207 8.21086 13.31 8.71957 13.31 9.25Z" fill="black"/>
</svg>
