<svg width="20" height="20" viewBox="0 0 20 20" fill="none" xmlns="http://www.w3.org/2000/svg">
<path fill-rule="evenodd" clip-rule="evenodd" d="M13.8304 16.0272C12.1296 17.299 10.0102 17.8794 7.89878 17.6515C5.78734 17.4237 3.84056 16.4045 2.45026 14.7992C1.05995 13.1938 0.329311 11.1214 0.405391 8.99908C0.48147 6.87674 1.35862 4.86199 2.8603 3.3603C4.36199 1.85862 6.37674 0.98147 8.49908 0.905391C10.6214 0.829311 12.6938 1.55995 14.2992 2.95026C15.9045 4.34056 16.9237 6.28734 17.1515 8.39878C17.3794 10.5102 16.799 12.6296 15.5272 14.3304L19.2484 18.0504L17.5516 19.7484L13.8316 16.0284L13.8304 16.0272ZM14.8 9.29999C14.8 10.8913 14.1679 12.4174 13.0426 13.5426C11.9174 14.6679 10.3913 15.3 8.79999 15.3C7.20869 15.3 5.68257 14.6679 4.55735 13.5426C3.43213 12.4174 2.79999 10.8913 2.79999 9.29999C2.79999 7.70869 3.43213 6.18257 4.55735 5.05735C5.68257 3.93213 7.20869 3.29999 8.79999 3.29999C10.3913 3.29999 11.9174 3.93213 13.0426 5.05735C14.1679 6.18257 14.8 7.70869 14.8 9.29999Z" fill="#0E0E10"/>
</svg>
