<svg width="66" height="66" viewBox="0 0 66 66" fill="none" xmlns="http://www.w3.org/2000/svg">
<g clip-path="url(#clip0_14_712)">
<g clip-path="url(#clip1_14_712)">
<g clip-path="url(#clip2_14_712)">
<path d="M27.9011 1.7378C27.5589 1.56209 27.1391 1.697 26.9634 2.03914C26.7877 2.38128 26.9226 2.80109 27.2647 2.97681C29.2382 3.99036 31.151 5.73442 32.4401 7.54078C32.9267 8.22272 34.4812 11.4771 35.196 11.3184C35.7353 11.1987 36.2893 11.1628 36.8251 11.0241C41.7847 9.73961 47.022 10.853 51.6673 13.1731C54.7155 14.6957 55.656 14.9566 57.9591 17.2573C60.0076 19.3037 59.8209 22.0467 58.4768 24.6775C57.1279 27.3176 54.7171 29.5947 52.8004 30.4456C51.8372 30.8733 50.8818 31.3183 49.925 31.7598C50.8599 32.8494 51.9343 33.8415 52.816 34.9739C53.9872 36.4782 54.2243 38.3963 54.6308 40.203C57.4974 40.8891 60.3232 41.9294 62.0297 44.5366C62.5375 45.3124 62.8723 46.3448 63.1004 47.4741C63.6885 50.3855 63.6376 53.1498 62.7982 56.0149C62.093 58.4223 60.529 61.079 60.529 63.643C60.529 64.0277 60.8408 64.3395 61.2254 64.3395C61.61 64.3395 61.9218 64.0277 61.9218 63.643C61.9218 61.2393 63.4732 58.6653 64.1349 56.4065C65.037 53.3271 65.0978 50.3277 64.4657 47.1983C64.2232 45.9981 63.8443 44.7656 63.1951 43.7738C61.5105 41.2 58.7181 39.7566 55.8024 39.0515C55.4544 37.4139 55.168 35.7274 53.915 34.1182C53.3971 33.453 52.7866 32.8566 52.2113 32.2409C52.6011 32.0627 53.0434 31.8617 53.3656 31.7187C55.6169 30.7192 58.246 28.1907 59.7171 25.3112C61.1931 22.4225 61.6065 18.9321 58.9435 16.2719C56.4526 13.7836 55.2973 13.4293 52.2897 11.9271C47.4507 9.51015 41.8608 8.28107 36.4759 9.6757C36.1992 9.74735 35.6333 9.82968 35.6333 9.82968C35.1944 8.96392 34.5626 8.25303 34.0431 7.44013C33.8901 7.20177 33.7384 6.96233 33.5738 6.73169C32.1722 4.76766 30.0963 2.86522 27.9011 1.7378Z" fill="#FFAAA8"/>
<path d="M29.5903 13.2301C29.9658 13.1472 30.203 12.7755 30.1201 12.3999C30.0371 12.0243 29.6654 11.7871 29.2898 11.8701C25.962 12.6052 21.8283 14.2946 18.4633 15.8887C12.473 18.7264 7.57165 23.6935 3.54216 28.889C2.46602 30.2765 1.48193 31.7904 0.925029 33.3938C0.79884 33.7572 0.991086 34.154 1.35442 34.2802C1.71776 34.4064 2.1146 34.2142 2.24079 33.8508C2.72528 32.4558 3.60443 31.0814 4.64279 29.7426C8.53768 24.7206 13.2684 19.8909 19.0596 17.1474C22.3975 15.5662 26.4181 13.9309 29.5903 13.2301Z" fill="#FFAAA8"/>
<path d="M29.7455 36.0059C31.799 35.3214 34.3076 35.6649 35.4675 35.9612C35.4499 36.167 35.4017 36.4393 35.3032 36.7183C35.173 37.0871 34.9623 37.4475 34.64 37.6893C33.7266 38.3743 31.9099 39.5072 29.649 39.7333C28.7591 39.8223 27.5897 39.6553 26.4736 39.4013C25.6008 39.2027 24.7751 38.9543 24.1654 38.7459C25.4182 37.9772 27.7822 36.6603 29.7455 36.0059Z" fill="white"/>
<path fill-rule="evenodd" clip-rule="evenodd" d="M34.6697 12.5268C33.1386 10.1482 29.0198 4.79264 28.4686 5.16093C27.9174 5.52922 29.617 11.2991 30.5357 14.138C26.4781 15.2889 17.72 18.1432 15.1477 20.3529C14.7416 20.7017 14.2147 21.124 13.6049 21.6126C9.38545 24.9938 1.19571 31.5564 1.59705 38.9977C2.05639 47.5144 9.1762 54.6501 15.1477 55.3406C21.1191 56.0312 29.8466 53.9595 35.3588 48.4351C39.7684 44.0157 41.6364 38.921 42.0192 36.926C42.7848 38.1537 44.5456 40.7931 45.4643 41.5297C46.383 42.2663 47.2251 42.9108 47.5313 43.141C47.3782 44.6755 47.3476 48.205 48.45 50.0464C49.8281 52.3482 52.8138 54.6501 55.3402 56.2613C57.3613 57.5504 58.9384 60.4813 59.4743 61.7857C61.082 58.7933 63.9299 51.9339 62.46 48.4351C60.9901 44.9364 55.723 41.7599 53.2731 40.609C53.0435 39.458 52.4004 36.7879 51.6654 35.3148C50.9305 33.8416 49.8281 32.2457 49.3687 31.6319C51.1295 31.018 54.9727 29.1459 56.2589 26.5678C57.8666 23.3453 59.0149 20.3529 57.1775 18.2813C55.3402 16.2097 50.5171 14.1381 43.8566 12.5268C38.5282 11.2377 36.1243 11.9897 34.6697 12.5268ZM35.7716 35.5625C34.668 35.2471 31.891 34.8013 29.5987 35.5654C27.3425 36.3175 24.5994 37.9085 23.5109 38.6083L23.1217 38.8585L23.5549 39.0209C24.1828 39.2564 25.2375 39.5962 26.3706 39.854C27.4986 40.1107 28.728 40.292 29.6952 40.1953C32.0771 39.9571 33.9748 38.7686 34.9185 38.0607C35.339 37.7453 35.5926 37.2932 35.741 36.8728C35.8895 36.452 35.94 36.0427 35.94 35.7857V35.6106L35.7716 35.5625Z" fill="white"/>
<path fill-rule="evenodd" clip-rule="evenodd" d="M29.3992 7.72015C28.7539 8.1753 28.8933 8.9939 30.0425 11.497C30.8285 13.2088 31.0581 13.8891 30.9947 14.3188C30.8929 15.0111 31.7491 17.6778 33.4665 22.0167C34.8703 25.5636 36.218 28.341 38.5065 32.4034L40.1025 35.2369L39.7105 35.6028C39.4949 35.804 38.9505 36.6483 38.5008 37.479C38.051 38.3097 36.7146 40.4664 35.5307 42.2715C32.551 46.8151 28.9728 50.2834 23.7261 51.8559C19.2695 53.1921 14.1726 52.3035 10.1247 50.1439C7.77343 48.8895 7.22126 48.4573 5.15851 46.2566C3.65798 44.6558 2.51144 42.5756 2.51144 42.5756C2.51144 42.5756 2.33382 44.375 4.0651 48.0967C7.54718 55.5821 18.9395 56.5164 25.6572 54.3001C34.4321 51.4054 38.6468 47.0682 42.2422 38.4975L42.0657 36.7312C42.0657 36.7312 46.2348 41.7372 46.9258 42.4549C48.7994 44.4003 48.6833 44.1646 48.6833 46.0231C48.6833 48.0127 49.067 49.3095 50.2659 51.3722C51.3773 53.2841 53.6673 55.5261 56.3109 57.2898L57.5855 58.1402L57.5509 58.9368C57.5232 59.5815 57.595 59.7975 57.9282 60.0692C58.6694 60.6736 59.2784 60.4396 59.9345 59.2983C60.1745 58.8806 60.4231 58.2589 60.4867 57.9168C60.5737 57.4496 60.7415 57.2285 61.1615 57.0282C62.3886 56.4431 62.9698 54.6467 62.8542 51.796C62.7769 49.8871 62.3729 48.7074 61.666 48.3263C61.2045 48.0777 60.7715 48.2762 60.7715 48.7367C60.7715 49.0219 60.6299 48.9004 60.1979 48.2432C59.512 47.1998 58.7977 46.6266 58.3831 46.7869C58.0599 46.9118 58.0535 46.8207 58.5594 49.3449C59.0071 51.5776 58.8968 51.7998 57.9893 50.4937C56.7049 48.6454 55.4677 47.2534 55.1091 47.2534C54.6226 47.2534 54.6817 47.6034 55.4945 49.5345C55.8921 50.4793 56.3319 51.5321 56.4716 51.8742L56.7257 52.4963L56.0061 51.6965C54.6042 50.1388 53.3982 48.5768 53.031 47.8431C52.5739 46.9301 51.5951 44.2545 51.5951 43.9184C51.5951 43.7834 52.0232 43.2787 52.5466 42.797C53.5669 41.8578 53.9804 41.0548 54.165 39.6538C54.3513 38.239 53.6645 37.4125 52.653 37.8345C52.1349 38.0506 51.8711 38.5434 51.6944 39.6248C51.6372 39.9744 51.3614 40.5762 51.3614 40.5762C50.9364 40.9701 49.9508 39.7489 49.6558 39.4635L50.6164 38.4568C51.807 37.2087 52.2699 36.1285 51.9484 35.347C51.5536 34.3868 50.4754 34.384 49.9209 35.3415C49.7255 35.679 49.1423 36.3858 48.6249 36.9123L47.6843 37.8691C47.4724 37.6687 46.8304 36.929 46.8304 36.929C46.8304 36.929 49.4774 35.184 49.4774 33.6772C49.4774 33.029 49.2103 32.6801 48.7138 32.6801C48.5217 32.6801 47.8911 33.201 47.2629 33.8787C46.6518 34.538 46.1153 35.0378 46.0707 34.9895C46.0259 34.9411 45.2291 33.742 44.2998 32.3247C43.3707 30.9073 41.9812 28.828 41.2121 27.7039C40.4432 26.5798 39.6366 25.3002 39.4199 24.8603C39.203 24.4205 38.3103 22.8384 37.4359 21.3446C36.533 19.8021 35.1693 17.0759 34.2799 15.0354C31.9969 9.79827 31.2728 8.34254 30.7139 7.86749C30.1286 7.36986 29.9278 7.34729 29.3992 7.72015ZM33.8724 11.4548C33.4829 11.8472 33.5184 12.0443 34.1687 13.0986C35.8849 15.8803 46.6237 31.1409 47.2917 31.7471C47.9086 32.3069 48.5015 32.26 48.9759 31.6138C49.1912 31.3206 49.4727 31.0806 49.6015 31.0806C50.1595 31.0806 52.9334 29.7934 53.9386 29.0679C55.4899 27.9484 57.5202 25.7765 57.9421 24.7851C58.476 23.5309 58.8305 21.9869 58.8285 20.9248C58.3831 17.4464 55.1091 17.4464 55.1091 17.4464C55.1091 17.4464 56.467 18.8991 56.3109 20.4192C55.9176 24.244 53.4566 26.9779 49.908 28.4102L48.2492 29.0798L45.8192 25.6325C44.4828 23.7366 43.3659 22.1173 43.3377 22.034C43.3093 21.9508 43.6269 21.7057 44.0436 21.4894C45.6122 20.6751 46.2646 19.6104 45.9341 18.4047C45.7267 17.6483 45.1663 17.1231 44.2003 16.78C43.265 16.4476 41.3321 16.4378 40.4335 16.7608L39.7721 16.9984L38.467 15.1979C36.497 12.4801 35.1463 11.1756 34.3021 11.1756C34.2183 11.1756 34.025 11.3013 33.8724 11.4548ZM26.0952 20.4192C24.8167 20.6513 23.7344 21.0693 23.0483 21.5964C20.5451 23.5194 21.9258 26.2771 25.3893 26.2727C28.918 26.2682 30.8839 25.5259 31.2758 24.0503C31.6318 22.7099 31.0235 21.2797 29.832 20.6556C29.2104 20.33 27.2648 20.2068 26.0952 20.4192ZM16.8306 26.5183C15.455 26.905 14.3226 27.5782 13.0965 28.7379C11.1941 30.5371 10.667 32.2124 11.6376 33.374C12.4952 34.4005 13.8039 34.4348 15.639 33.4792C17.9612 32.2699 19.5067 30.5203 19.9092 28.6453C20.0495 27.9918 19.6707 27.0223 19.1464 26.6925C18.6027 26.3505 17.6753 26.2807 16.8306 26.5183ZM32.801 32.6012C31.8988 32.9118 22.2091 33.76 25.7567 36.5698C26.4901 37.1508 26.8074 37.1698 27.7226 36.6878C28.7287 36.158 31.6526 35.4032 33.4665 35.347C36.4998 35.2531 35.856 36.4034 35.856 36.4034C35.856 36.4034 36.5705 33.5887 35.3092 33.0443C34.5853 32.7317 33.1561 32.4793 32.801 32.6012ZM9.86001 37.9823C9.00166 38.3934 8.46608 38.957 8.10379 39.8303C7.7512 40.68 7.76602 41.4335 8.15796 42.5756C8.86525 44.6368 9.91666 45.4918 11.8003 45.5377C12.8632 45.5635 12.962 45.5304 13.562 44.9457C14.8439 43.6967 15.099 40.9746 14.088 39.3352C13.19 37.8787 11.3236 37.2814 9.86001 37.9823Z" fill="black"/>
<path fill-rule="evenodd" clip-rule="evenodd" d="M26.384 3.25896C25.9624 3.68012 25.8704 4.03497 25.9478 4.94021C25.9858 5.38665 27.31 8.7389 28.5691 11.5768C28.9573 12.452 29.2186 13.2286 29.1498 13.3026C29.0808 13.3765 27.4841 13.9579 25.6015 14.5944C23.719 15.2307 21.9406 15.8745 21.6497 16.0249C21.3589 16.1752 20.1175 16.6947 18.8913 17.1795C14.6175 18.8685 13.744 19.4815 8.57169 24.4204C5.48555 27.3674 4.23493 28.9024 2.61472 31.7324C0.301535 35.7731 -0.376942 39.7138 0.667045 43.0454C1.07519 44.3475 3.24508 48.3602 4.24147 49.6551C5.17312 50.8659 6.8487 52.2865 8.48164 53.2501C9.18577 53.6654 10.1907 54.3031 10.7147 54.6672C12.095 55.626 13.2819 56.0067 15.8239 56.3057C22.5101 57.0924 26.8306 56.137 31.4552 52.8489C35.194 50.1905 38.3841 47.1764 39.8334 44.9328C40.5484 43.826 41.3199 42.2959 42.2862 40.0683L42.5052 39.5637L43.1524 40.5377C44.0901 41.9492 44.8547 42.7692 45.8097 43.3875L46.6511 43.9324L46.7233 45.9657C46.844 49.3579 47.6663 51.5655 49.4314 53.2354C49.9931 53.7669 51.6867 55.0737 53.1949 56.1393C54.7031 57.2049 56.266 58.4035 56.6681 58.8027C57.4165 59.546 58.8563 62.2193 58.8563 62.8657C58.8563 63.6748 59.871 63.9338 60.3563 63.2485C60.5111 63.0296 60.8076 62.2937 61.0152 61.613C61.2225 60.9323 61.7379 59.6896 62.1602 58.8513C64.033 55.1343 64.3216 50.5053 62.9084 46.8497C61.6935 43.7071 58.855 41.1659 55.6134 40.3188L54.5255 40.0345L54.474 39.243C54.3746 37.7106 53.7901 36.4153 52.045 33.861L50.898 32.182L52.9421 31.2C55.7211 29.865 56.8778 28.7126 58.2385 25.924C59.7702 22.7846 59.9084 20.7943 58.7579 18.4387C58.0998 17.0909 56.763 15.9802 54.1524 14.6124C50.1661 12.5236 48.2775 11.897 43.3624 11.0317C40.4762 10.5236 38.8363 10.5316 36.2365 11.066C35.5209 11.2131 34.9157 11.3088 34.8914 11.2784C34.8672 11.248 33.7502 9.71151 32.4089 7.86388C31.0677 6.01626 29.7225 4.23918 29.4196 3.91491C28.3285 2.74676 27.1512 2.49233 26.384 3.25896ZM31.8522 10.9943C33.7861 13.6469 34.7842 14.686 35.7077 15.0078C36.3315 15.2251 36.4863 14.9862 36.3146 14.0712C36.1757 13.3309 36.2328 13.3053 38.5943 13.0475C40.2457 12.8673 40.5857 12.8884 43.0535 13.3233C47.6406 14.1317 48.7798 14.494 52.3432 16.2779C55.949 18.0831 56.695 18.767 57.0938 20.6332C57.3622 21.8884 57.0867 23.1226 56.0981 25.0963C55.0313 27.2261 53.9005 28.2615 51.3898 29.4074L49.5117 30.2647L48.5669 29.5674C47.6839 28.9157 46.6145 28.285 46.3925 28.285C45.905 28.285 47.6328 31.8786 48.5715 32.8173C48.9473 33.1932 49.5938 34.1771 50.0081 35.0037C50.4223 35.8302 50.8791 36.5748 51.0231 36.6581C51.7362 37.0705 52.4135 39.7693 51.9767 40.4582C51.8617 40.6394 52.5104 41.0448 54.664 42.1378C58.6185 44.1449 60.0609 45.5397 60.9692 48.2344C61.4426 49.6385 61.4281 50.7336 60.9019 53.3714C60.4683 55.5449 59.9988 56.6564 59.2149 57.3653C58.8294 57.7139 58.829 57.7139 58.4929 57.2767C58.3078 57.036 58.1546 56.759 58.1525 56.661C58.1481 56.4572 56.243 55.1575 55.3179 54.7273C54.2345 54.2232 50.9198 51.6546 50.3646 50.8887C49.6585 49.9145 49.1555 48.2336 49.0352 46.4446C48.9815 45.6464 48.8451 44.2971 48.732 43.4462C48.5471 42.0551 48.4887 41.8991 48.1531 41.8991C47.6445 41.8991 46.1932 40.9562 45.9265 40.4523C45.807 40.2271 45.4525 39.7244 45.1383 39.3354C44.8243 38.9465 43.9121 37.4931 43.1114 36.1059C41.3174 32.998 40.7067 32.4412 39.8959 33.1746C39.4035 33.62 39.5049 34.388 40.2315 35.7159L40.8907 36.9206L40.3817 38.3932C38.6203 43.4877 36.5332 46.1695 31.2797 50.0881C28.4869 52.1712 27.0293 52.9538 24.6228 53.6624C22.6028 54.2572 20.6852 54.3765 17.3505 54.1152C14.1488 53.8641 13.2457 53.6237 11.8786 52.6588C11.2982 52.249 10.1068 51.4414 9.23106 50.8639C6.58774 49.1211 5.84841 48.2585 3.94549 44.6967C2.62799 42.2306 2.32458 40.8752 2.5942 38.6586C2.82702 36.7452 3.2725 35.3538 4.21688 33.5892C5.71165 30.7966 6.85241 29.3305 9.67141 26.5794C14.6391 21.7312 15.8773 20.8143 19.1524 19.5581C20.0203 19.2251 21.3676 18.6719 22.146 18.3287C24.2571 17.398 30.0821 15.4798 30.1529 15.692C30.1863 15.7923 30.6164 16.5493 31.1088 17.3747C32.1197 19.0694 32.634 19.4497 33.3135 19.0046C33.9002 18.6206 33.8524 18.0018 33.1173 16.4692C32.7782 15.7618 32.1457 14.2862 31.7119 13.1898C31.2779 12.0935 30.64 10.553 30.2939 9.76667C29.2761 7.45317 29.263 7.44273 31.8522 10.9943ZM32.4871 32.8534C32.2662 33.0321 32.1404 33.2669 32.2073 33.3753C32.2743 33.4835 32.8472 33.827 33.4804 34.1386C34.1137 34.4501 34.6671 34.7622 34.7103 34.832C34.7534 34.9018 34.0907 34.9192 33.2374 34.8705C31.8386 34.7908 29.9112 34.9533 28.2641 35.2897C27.7502 35.3948 27.6761 35.3702 27.7702 35.125C27.9186 34.7386 27.2679 34.2964 26.5512 34.2964C24.8995 34.2964 22.8882 36.1191 22.5032 37.9646C22.2145 39.3496 23.2793 40.6541 25.0103 41.0352C26.4904 41.3611 30.1996 41.3137 31.5911 40.9509C34.0958 40.298 35.9358 38.8188 36.967 36.6289C37.781 34.9002 37.4422 33.7696 35.8595 32.9331C34.8637 32.4067 33.0908 32.3648 32.4871 32.8534ZM34.0231 37.0216C32.8978 38.4961 29.7134 39.2976 26.527 38.9081C25.1258 38.7368 24.7155 38.6291 24.9029 38.4818C25.098 38.3285 29.015 37.0983 30.1073 36.8474C31.227 36.59 34.2528 36.2502 34.4221 36.3628C34.4601 36.3879 34.2805 36.6844 34.0231 37.0216Z" fill="#323239"/>
</g>
</g>
</g>
<defs>
<clipPath id="clip0_14_712">
<rect width="65" height="65" fill="white" transform="translate(0.190002 0.5)"/>
</clipPath>
<clipPath id="clip1_14_712">
<rect width="65" height="65" fill="white" transform="translate(0.190002 0.5)"/>
</clipPath>
<clipPath id="clip2_14_712">
<rect width="65" height="65" fill="white" transform="translate(0.190002 0.5)"/>
</clipPath>
</defs>
</svg>
