<svg width="62" height="62" viewBox="0 0 62 62" fill="none" xmlns="http://www.w3.org/2000/svg">
<g clip-path="url(#clip0_14_820)">
<g clip-path="url(#clip1_14_820)">
<g clip-path="url(#clip2_14_820)">
<path d="M36.344 4.34801C33.127 3.36501 29.341 2.54101 25.75 2.32001C24.072 2.21701 17.387 1.87401 16.517 3.89601C16.027 5.03701 16.357 8.30401 15.233 8.79901C14.731 9.01901 13.151 8.44901 11.42 7.91501C9.25403 7.24601 6.82503 6.57501 5.56703 6.28301C4.78403 6.74301 4.30703 6.92901 3.52203 7.38201C3.36794 7.47089 3.18512 7.49575 3.01289 7.45125C2.84066 7.40674 2.69277 7.29642 2.60103 7.14401C2.55651 7.06889 2.52739 6.98565 2.51536 6.89916C2.50334 6.81267 2.50865 6.72464 2.53099 6.64022C2.55333 6.5558 2.59224 6.47668 2.64547 6.40745C2.69871 6.33822 2.76518 6.28028 2.84103 6.23701C3.58703 5.80701 4.58203 4.93501 5.40503 4.93501C5.62003 4.93501 5.94103 4.99801 6.25803 5.07001C9.02603 5.70001 11.733 6.62301 14.435 7.47701C14.611 6.15601 14.53 3.42601 15.791 2.70001C18.488 1.15001 22.126 0.770012 25.834 0.997012C29.56 1.22601 33.455 2.07701 36.744 3.08201C46.364 6.02401 52.739 10.939 55.54 16.459C56.345 18.046 54.941 20.816 54.408 22.413C55.779 23.163 57.191 24.091 58.704 24.517C59.218 24.662 59.449 25.074 59.534 25.425C59.614 25.756 59.592 26.12 59.549 26.426C58.65 32.878 51.785 40.184 44.844 40.184C44.7563 40.1847 44.6693 40.168 44.588 40.1351C44.5067 40.1021 44.4327 40.0535 44.3702 39.9919C44.3077 39.9303 44.258 39.8571 44.2238 39.7763C44.1896 39.6955 44.1717 39.6087 44.171 39.521C44.171 39.155 44.472 38.858 44.844 38.858C51.122 38.858 57.408 32.045 58.216 26.246C58.2437 26.0858 58.2484 25.9225 58.23 25.761C56.5 25.211 54.878 24.201 53.304 23.324C53.008 23.159 52.84 22.837 52.956 22.506C53.53 20.86 54.285 19.003 54.336 17.245C51.573 12.335 44.844 6.94701 36.344 4.34801ZM36.768 40.847C37.14 40.847 37.441 41.144 37.441 41.51C37.441 42.153 37.224 43.092 36.886 43.93C35.552 47.239 32.106 46.35 29.661 48.062C29.0682 48.4836 28.4831 48.916 27.906 49.359C29.667 50.329 31.5 51.51 32.758 53.113C34.078 54.794 33.946 57.66 33.371 59.644C33.214 60.186 32.336 60.367 31.889 60.568C31.7273 60.6416 31.5432 60.6486 31.3763 60.5877C31.2094 60.5267 31.0732 60.4025 30.997 60.242C30.9602 60.1626 30.9395 60.0767 30.9363 59.9892C30.933 59.9018 30.9472 59.8145 30.978 59.7326C31.0088 59.6507 31.0556 59.5757 31.1157 59.5121C31.1758 59.4485 31.248 59.3974 31.328 59.362L32.148 58.992C32.483 57.396 32.773 55.301 31.693 53.925C30.353 52.217 28.285 51.002 26.373 50.06C26.2735 50.0099 26.1882 49.9357 26.1248 49.844C26.0615 49.7524 26.0222 49.6463 26.0105 49.5355C25.9989 49.4247 26.0153 49.3127 26.0582 49.2099C26.1011 49.1071 26.1691 49.0167 26.256 48.947L26.258 48.945L26.288 48.922C26.5654 48.7042 26.8394 48.4822 27.11 48.256C27.944 47.566 28.813 46.846 29.765 46.43C31.79 45.543 34.667 45.841 35.635 43.44C35.935 42.696 36.095 41.93 36.095 41.51C36.095 41.144 36.396 40.847 36.768 40.847Z" fill="#FAFA19"/>
<path fill-rule="evenodd" clip-rule="evenodd" d="M16.26 4.45499L14.778 9.59499L5.96805 6.68899L3.59805 7.73199C3.10505 9.91799 2.41405 15.332 3.59805 19.502C5.07905 24.718 9.59605 28.294 11.298 29.113C12.661 29.769 13.791 30.28 14.186 30.454C14.433 31.174 15.06 32.912 15.593 34.104C16.0178 35.0449 16.4873 35.965 17 36.861C16.753 37.109 16.407 37.874 17 38.947C17.192 39.295 17.425 39.664 17.67 40.053C18.368 41.16 19.169 42.43 19.443 43.863C19.739 45.413 19.566 47.439 19.443 48.259C18.209 48.209 15.297 48.214 13.52 48.631C11.743 49.048 10.805 50.146 10.558 50.643L9.37305 53.473C9.96605 54.963 12.72 58.316 18.999 59.806C25.277 61.296 29.167 60.426 30.327 59.806C30.598 58.688 30.978 56.156 30.327 54.964C29.675 53.772 26.502 51.189 24.996 50.047C25.49 48.929 26.862 46.516 28.402 45.8C29.302 45.382 30.268 45.094 31.155 44.83C32.163 44.53 33.068 44.26 33.659 43.864C34.547 43.268 34.917 42.672 34.991 42.448C35.559 42.2 36.976 41.48 38.101 40.586C39.227 39.692 39.557 39.419 40.026 38.946C41.926 39.021 45.535 38.664 47.43 37.531C52.39 34.569 53.976 31.883 56.537 26.729L50.687 23.451L52.761 17.044C50.96 14.561 45.638 8.41799 37.287 5.19999C28.935 1.98199 19.616 3.11499 16.259 4.45599L16.26 4.45499ZM9.22405 12.5L13.593 13.618L12.704 22.706C11.742 22.21 9.69805 20.456 9.22405 17.417C8.75105 14.377 9.02705 12.873 9.22405 12.5Z" fill="white"/>
<path fill-rule="evenodd" clip-rule="evenodd" d="M16.645 4.335C16.142 4.777 15.361 7.141 15.261 8.525C15.188 9.542 15.199 9.58801 15.584 9.83801C15.966 10.087 17.124 10.355 17.484 10.085C17.484 10.085 17.651 9.041 18.286 7.036C18.904 5.083 18.942 4.651 18.528 4.24C18.14 3.854 17.112 3.924 16.645 4.335ZM4.66702 6.924C4.03002 7.23 3.57502 8.08 3.22202 9.618C2.82002 11.366 2.86202 16.428 3.29502 18.398C3.69402 20.215 4.66702 22.316 5.68202 23.644C7.71202 26.301 8.75002 27.432 11.299 29.104C13.538 30.572 15.249 29.596 15.66 29.104C16.041 28.648 17.46 29.143 16.114 28.386C15.056 27.791 13.189 26.721 11.499 25.046C8.32902 21.906 7.72302 20.852 6.79702 16.846C6.31702 14.771 6.32202 11.262 6.80902 8.712C7.14602 6.942 7.15202 6.819 6.91702 6.462C6.62702 6.022 5.37302 6.583 4.66702 6.924ZM15.376 13.262C15.1738 13.5111 14.9315 13.7247 14.659 13.894C13.861 14.344 13.118 16.449 12.813 19.127C12.392 22.817 15.283 27.932 15.261 21.504C15.253 18.928 15.426 17.962 15.661 16.708C16.174 15.779 17.382 14.485 17.394 13.314C17.402 12.517 15.892 12.594 15.376 13.262ZM43.929 35.006C48.125 33.965 50.399 31.626 52.18 27.85C51.228 27.193 50.322 26.817 49.207 26.227C47.252 29.909 46.235 31.587 43.929 35.006ZM14.894 32.183C15.353 34.841 17.934 35.816 16.486 37.524C16.273 37.775 16.114 38.149 16.114 38.398C16.114 38.646 17.354 39.394 17.914 40.465C19.021 42.584 19.384 43.938 19.388 45.851C19.391 46.861 18.952 49.006 20.808 49.006C21.448 49.006 22.905 48.096 23.205 46.904C23.62 45.251 23.687 44.439 23.511 43.214C23.256 41.446 22.687 40.43 21.127 38.958C19.893 37.796 18.847 37.411 18.847 36.882L18.459 35.268C17.897 34.511 17.728 34.188 17.394 33.234C17.126 32.469 16.896 32.448 17.05 31.464C17.204 30.482 17.4 30.068 17.245 29.884C16.092 28.505 14.725 31.202 14.894 32.183ZM9.81202 52.49C8.50402 55.623 20.864 60.007 22.203 60.237C26.268 60.937 29.058 60.545 29.658 60.237C30.602 59.753 30.722 58.669 29.951 57.573C27.391 53.928 22.262 51.814 17.898 51.162C15.37 50.784 10.476 50.899 9.81202 52.49Z" fill="black"/>
<path fill-rule="evenodd" clip-rule="evenodd" d="M12.465 7.33499C13.75 7.78599 14.511 7.95399 14.511 7.95399C14.511 7.95399 15.083 4.40099 15.476 3.88099C23.478 -1.74501 48.656 4.62099 53.93 16.394L53.94 16.44C53.995 16.71 54.13 17.374 53.93 18.17C53.722 19 52.612 22.417 52.612 22.417C52.612 22.417 56.494 24.464 57.968 25.472C58.322 25.715 58.344 26.273 58.188 26.865C57.886 28.004 55.472 32.21 53.641 34.237C50.358 37.871 44.975 40.323 40.085 40.201C38.986 41.312 38.18 42.085 36.178 42.66C36.085 42.66 35.97 42.843 35.923 43.067C35.806 43.623 35.326 44.373 34.911 44.647C34.723 44.772 33.7 45.073 32.638 45.317C30.528 45.801 29.842 46.101 28.254 47.234C26.957 48.159 26.027 49.324 26.586 49.324C26.661 49.324 27.326 49.731 28.064 50.23C29.832 51.425 31.239 52.876 31.942 54.226L32.496 55.293L32.396 57.01C32.266 59.252 32.134 59.717 31.468 60.272C30.465 61.107 28.609 61.499 25.643 61.5C22.473 61.501 19.356 60.681 15.68 58.88C13.588 57.854 12.504 57.107 10.935 55.611C9.60799 54.347 9.31499 53.86 9.26899 52.856C9.23799 52.151 9.32599 51.87 10.033 50.432C10.473 49.537 10.967 48.688 11.133 48.545C11.643 48.104 13.436 47.265 14.435 47.002C15.111 46.823 15.971 46.752 17.402 46.753L19.417 46.756V46.678C19.417 45.812 19.417 44.945 19.199 44.1C18.842 42.714 17.619 40.434 16.551 39.164C15.657 38.101 15.583 37.961 15.649 37.461C15.689 37.161 15.871 36.713 16.053 36.464L16.383 36.011L15.851 34.986C15.4459 34.1729 15.0742 33.3435 14.737 32.5C14.417 31.695 14.07 30.99 13.966 30.934C13.861 30.878 13.268 30.594 12.647 30.303C9.43899 28.798 4.87899 23.537 3.80599 20.102C3.13599 17.961 2.95599 16.484 2.94499 13.045C2.93399 9.83499 3.14199 8.02699 3.64399 6.97399C3.83899 6.56499 5.77899 5.50499 6.34499 5.49699C6.80199 5.49099 9.64099 6.34299 12.465 7.33499ZM9.57499 8.32499C11.153 8.84699 16.448 10.899 16.614 11.055C16.708 11.143 16.474 12.447 16.368 12.423C16.312 12.41 16.084 12.49 15.86 12.599C15.485 12.783 15.217 12.719 12.447 11.787C10.647 11.181 9.38799 10.83 9.30899 10.91C9.23599 10.984 9.09999 11.81 9.00799 12.746C8.56999 17.175 9.58499 20.386 12.35 23.314C13.043 24.049 15.053 25.656 15.476 25.814C15.631 25.871 15.743 26.167 15.808 26.691C15.862 27.126 15.942 27.681 15.986 27.926C16.065 28.356 16.041 28.378 15.202 28.646C14.665 28.817 13.799 28.604 12.834 28.166C11.002 27.335 6.71399 22.547 5.60799 19.707C5.07099 18.329 4.93899 17.449 4.82899 14.515C4.74899 12.383 4.77899 11.615 4.99299 10.265L5.25299 8.61499L6.07199 8.18499C6.52199 7.94999 7.07599 7.74699 7.30499 7.73499C7.53299 7.72299 8.55499 7.98899 9.57499 8.32499ZM12.19 14.107L13.295 14.432L13.205 15.092C13.157 15.455 13.045 16.525 12.958 17.471C12.871 18.416 12.751 19.589 12.689 20.078L12.579 20.966L11.979 19.707C11.231 18.135 10.776 16.447 10.666 14.834C10.589 13.697 10.603 13.596 10.833 13.685C10.972 13.739 11.583 13.929 12.19 14.107ZM19.75 49.107C22.944 49.672 26.442 51.29 28.747 53.268C29.527 53.937 29.954 54.762 30.195 56.063L30.301 56.633L29.584 56.033C28.664 55.263 27.342 53.857 25.881 53.268C24.358 52.654 23.244 52.615 23.244 52.615C23.217 52.643 23.528 53.305 24.079 53.523C25.254 53.988 26.959 55.088 28.062 56.09C28.962 56.908 29.965 58.143 29.965 58.433C29.965 59.086 24.893 59.4 22.566 58.891C18.619 58.027 14.212 55.914 11.922 53.785L11.166 53.083L11.518 52.143C11.964 50.955 13.008 49.758 13.896 49.415C15.365 48.848 17.616 48.73 19.75 49.107ZM42.869 37.417C47.264 33.675 49.828 29.425 51.513 24.908C52.577 25.501 53.328 25.898 53.886 26.192C54.444 26.487 54.809 26.68 55.102 26.865C54.443 30.517 48.509 36.903 42.869 37.417ZM32.397 43.067C32.397 43.067 25.643 43.565 24.774 48.229C23.676 47.563 22.764 47.319 21.698 47.119C21.698 47.119 22.567 42.454 18.741 38.414C19.751 36.901 23.236 37.79 26.093 38.678C28.95 39.567 33.345 42.01 32.397 43.067ZM51.52 16.93L51.145 18.416C50.345 21.656 48.305 26.046 46.832 28.59C44.832 32.042 40.138 37.688 37.152 39.925L37.047 40.005C35.983 40.802 35.55 41.065 35.263 41.035C35.109 41.018 34.703 40.67 34.592 40.55C33.652 39.675 32.177 38.656 30.276 37.734C27.109 36.198 24.406 35.078 20.922 34.93L18.408 35.068L18.096 34.535C17.696 33.848 16.558 31.07 16.558 31.07C16.558 30.874 17.012 30.461 17.489 30.461C18.388 30.461 18.339 29.158 18.189 28.627C18.07 28.207 17.966 27.537 17.875 26.949C17.83 26.66 17.788 26.392 17.749 26.184C17.42 24.414 17.079 23.85 15.867 23.258L15.624 23.14C14.943 22.812 14.829 22.758 14.744 22.186C14.604 21.241 15.081 16.374 15.332 15.522L15.338 15.499C15.393 15.309 15.473 15.036 15.867 15.036C16.489 15.036 17.683 14.724 17.969 14.376C18.285 13.991 18.848 11.659 18.848 10.998C18.848 9.92799 18.684 9.57799 17.633 9.08099C17.2996 8.92375 16.9622 8.77537 16.621 8.63599C16.832 7.67599 17.301 5.43999 17.301 5.43999C26.531 0.922992 47.54 9.11599 51.52 16.93Z" fill="#323239"/>
</g>
</g>
</g>
<defs>
<clipPath id="clip0_14_820">
<rect width="61" height="61" fill="white" transform="translate(0.330017 0.5)"/>
</clipPath>
<clipPath id="clip1_14_820">
<rect width="61" height="61" fill="white" transform="translate(0.330017 0.5)"/>
</clipPath>
<clipPath id="clip2_14_820">
<rect width="61" height="61" fill="white" transform="translate(0.330017 0.5)"/>
</clipPath>
</defs>
</svg>
