<svg width="70" height="70" viewBox="0 0 70 70" fill="none" xmlns="http://www.w3.org/2000/svg">
<g clip-path="url(#clip0_14_871)">
<g clip-path="url(#clip1_14_871)">
<g clip-path="url(#clip2_14_871)">
<path d="M25.938 5.50799C27.134 4.94999 28.33 5.88499 28.988 6.83099C29.716 7.87799 30.014 9.14599 30.316 10.367C30.647 11.706 30.965 13.165 31.561 14.417C31.723 14.757 31.688 14.877 31.696 15.217C31.707 15.699 32.166 15.995 32.615 15.933C33.072 15.907 33.515 15.82 33.921 15.728C35.709 15.323 37.504 14.954 39.285 14.516C40.3042 14.259 41.3277 14.0193 42.355 13.797C43.358 13.586 44.367 13.518 45.445 13.448C48.711 13.238 51.939 12.632 55.127 11.904C55.581 11.8 56.081 11.977 56.532 12.057C57.942 12.307 59.072 13.04 59.853 14.26C60.673 15.541 60.631 16.191 61.193 17.876C62.068 20.502 62.275 23.279 62.907 25.964C63.635 29.059 64.26 32.329 65.463 35.268C66.375 37.499 66.957 39.905 67.393 42.306C67.642 43.674 67.702 44.789 67.399 46.153C67.332 46.456 67.016 46.914 66.479 47.442C66.0005 47.902 65.4855 48.3223 64.939 48.699C63.816 49.476 62.637 50.578 62.02 51.812C61.97 51.8994 61.9383 51.9961 61.9269 52.0962C61.9155 52.1963 61.9247 52.2976 61.9539 52.3941C61.9831 52.4905 62.0316 52.5799 62.0966 52.6569C62.1615 52.7339 62.2415 52.7968 62.3316 52.8418C62.4218 52.8868 62.5201 52.9129 62.6207 52.9186C62.7213 52.9242 62.8219 52.9093 62.9165 52.8746C63.0111 52.84 63.0977 52.7865 63.1708 52.7172C63.244 52.648 63.3022 52.5645 63.342 52.472C63.528 52.102 63.92 51.606 64.406 51.107C65.358 50.131 66.543 49.45 67.515 48.497C68.069 47.952 68.674 47.233 68.842 46.474C69.187 44.922 69.131 43.597 68.848 42.041C68.403 39.592 67.798 37.074 66.831 34.708C66.223 33.223 65.791 31.648 65.471 30.048C65.296 29.168 65.058 28.305 64.821 27.441C64.6515 26.8386 64.4932 26.2332 64.346 25.625C64.014 24.214 63.82 22.913 63.585 21.563C63.272 19.77 62.752 18.063 62.272 16.315C62.022 15.401 61.784 14.535 61.098 13.463C60.45 12.45 59.366 11.362 58.278 10.833C57.482 10.447 55.631 10.272 54.798 10.463C52.099 11.079 50.246 11.419 47.504 11.785C45.69 12.027 43.847 11.972 42.05 12.35C41.001 12.57 39.958 12.828 38.93 13.08C37.58 13.413 36.258 13.738 34.934 13.983C34.337 14.093 33.754 14.268 33.156 14.377C33.007 13.975 32.785 13.605 32.641 13.201C32.285 12.205 32.027 11.126 31.774 10.101C31.453 8.80099 31.1 7.27799 30.202 5.98699C29.705 5.27299 29.01 4.59699 28.178 4.20499C27.328 3.80299 26.324 3.69599 25.313 4.16799C24.614 4.49399 23.914 4.82299 23.277 5.26199C22.755 5.61999 22.444 6.17299 22.237 6.63599C22.05 7.05299 21.917 7.48999 21.746 7.91299C21.7033 8.00404 21.6795 8.10286 21.6762 8.2034C21.6729 8.30394 21.6902 8.40409 21.7269 8.49775C21.7636 8.5914 21.819 8.67658 21.8898 8.74809C21.9605 8.81959 22.0451 8.87592 22.1384 8.91364C22.2317 8.95135 22.3316 8.96965 22.4322 8.96742C22.5328 8.9652 22.6318 8.94249 22.7233 8.90069C22.8148 8.85888 22.8968 8.79886 22.9644 8.7243C23.0319 8.64973 23.0835 8.56218 23.116 8.46699C23.38 7.81699 23.508 6.89699 24.115 6.47999C24.663 6.10299 25.258 5.82499 25.923 5.51499L25.938 5.50799Z" fill="#00FAFA"/>
<path d="M27.866 6.92999L31.646 16.54C38.684 15.437 53.166 13.137 54.804 12.759C56.852 12.286 58.9 13.074 59.531 15.279C60.161 17.485 65.359 38.594 65.989 40.484C66.619 42.374 66.935 43.635 66.777 44.738C66.62 45.841 62.524 50.724 60.791 51.512C59.058 52.3 52.441 54.505 44.407 56.395C36.373 58.285 18.414 62.855 16.051 63.485C13.688 64.115 11.325 63.957 10.38 62.382C9.435 60.806 8.17401 57.341 5.024 45.211C1.873 33.08 1.24301 30.402 1.55801 29.3C1.87301 28.197 4.55101 22.053 5.96801 21.58C7.10301 21.202 20.199 18.692 26.606 17.485L23.77 9.92199C23.823 9.23899 24.211 7.68499 25.346 6.92899C26.48 6.17299 27.498 6.61499 27.866 6.92999Z" fill="white"/>
<path fill-rule="evenodd" clip-rule="evenodd" d="M24.042 8.92299C23.165 9.55099 23.156 9.85399 23.971 11.453C24.358 12.214 25.121 13.793 25.665 14.963L26.763 17.578H28.999C28.915 17.007 25.958 9.62799 25.599 9.09299C25.157 8.43699 24.779 8.39499 24.042 8.92299ZM2.03202 27.803C1.39602 30.242 1.34302 30.7 1.54502 32.019C1.64902 32.695 1.84202 33.548 1.97502 33.913C2.10902 34.278 2.39002 35.392 2.60002 36.388C3.87202 42.42 5.12902 46.945 7.54302 54.19C8.30802 56.486 9.01702 58.683 9.11702 59.073C9.46502 60.42 10.357 61.998 11.149 62.666C12.682 63.958 13.263 64.161 14.216 63.735C14.489 63.613 15.137 63.477 15.657 63.432C25.366 61.594 46.206 56.08 57.955 52.444C59.764 52.031 60.207 51.8 62.591 50.027C64.415 48.67 66.62 45.525 66.62 45.525L66.12 43.792C66.12 43.792 65.517 45.496 63.154 46.155C62.331 46.385 60.929 46.765 59.846 47.098C58.762 47.431 57.309 47.823 56.616 47.968C54.296 48.453 42.44 51.662 41.142 52.155C40.715 52.318 39.15 52.762 35.349 53.798C34.309 54.081 31.332 54.929 28.733 55.683C26.133 56.436 23.12 57.25 22.037 57.491C20.954 57.732 19.549 58.085 18.914 58.275C16.621 58.963 15.224 58.985 13.984 58.352C13.358 58.032 12.136 54.957 11.011 50.868C10.6067 49.3958 10.1943 47.9257 9.77402 46.458C8.51002 42.1 7.38402 37.812 6.58902 34.34C6.08168 32.2016 5.51244 30.0784 4.88202 27.973C4.65302 27.234 4.37802 25.361 5.02402 22.525C5.02402 22.525 2.27002 26.889 2.03202 27.803ZM43.216 24.248C42.403 24.443 41.074 25.25 40.642 25.811C40.417 26.104 39.972 26.652 39.654 27.029C38.91 27.911 38.644 29.05 38.884 30.339C39.099 31.507 39.622 32.379 40.7 33.363C42.424 34.939 44.338 35.215 46.297 34.17C46.837 33.882 47.467 33.405 47.695 33.11C47.923 32.815 48.4 32.226 48.755 31.801C49.109 31.377 49.481 30.756 49.581 30.422C49.836 29.572 49.808 28.247 49.515 27.261C48.864 25.066 45.841 23.621 43.216 24.248ZM46.206 26.27C47.249 26.849 47.566 27.322 47.668 28.456C47.809 30.01 47.078 31.088 45.602 31.501C44.635 31.771 43.881 31.598 43.147 30.934C41.971 29.872 41.511 28.114 42.108 26.964C42.698 25.825 44.771 25.474 46.206 26.27ZM23.928 26.779C23.798 26.863 23.425 26.933 23.099 26.934C22.337 26.937 19.945 27.47 18.846 27.881C17.696 28.311 17.24 28.817 17.24 29.661C17.24 30.169 17.15 30.399 16.847 30.659C16.505 30.953 16.459 31.109 16.491 31.874C16.511 32.356 16.663 33.184 16.828 33.714C17.042 34.403 17.075 34.691 16.944 34.729C14.89 35.33 14.886 35.333 14.467 36.152C14.247 36.585 13.845 37.158 13.577 37.425C12.859 38.137 12.731 38.789 13.001 40.355C13.294 42.047 13.811 43.797 14.122 44.147C14.316 44.365 14.618 44.422 15.564 44.417C16.705 44.413 18.834 44.195 19.354 44.03C19.553 43.967 19.668 44.278 19.954 45.643C20.448 48.008 20.809 48.68 21.774 49.032C22.509 49.3 22.576 49.299 23.9 48.985C25.92 48.507 27.708 47.889 28.043 47.554C28.223 47.373 28.341 47.029 28.345 46.667C28.35 46.177 28.436 46.023 28.857 45.76C29.195 45.547 29.432 45.224 29.573 44.782C29.759 44.195 29.745 43.975 29.455 42.827C29.275 42.115 29.145 41.522 29.167 41.507C29.187 41.494 29.592 41.347 30.065 41.18C30.687 40.962 31.027 40.728 31.29 40.337C31.49 40.04 31.865 39.694 32.122 39.569C32.846 39.219 33.018 38.374 32.694 36.767C32.441 35.509 31.534 32.567 31.276 32.164C30.986 31.711 30.401 31.657 29.158 31.968C28.5901 32.1119 28.0196 32.2459 27.447 32.37C26.889 32.48 27.008 32.736 26.128 29.536C25.713 28.024 25.315 27.201 24.84 26.868C24.434 26.583 24.257 26.567 23.928 26.779ZM24.298 31.426C24.608 32.639 24.883 33.837 24.908 34.089C24.934 34.363 25.117 34.669 25.366 34.853L25.78 35.161L27.85 34.648C28.987 34.366 29.94 34.163 29.966 34.198C30.068 34.332 31.04 37.519 30.991 37.554C30.961 37.575 30.619 37.681 30.229 37.79C27.266 38.62 26.892 38.782 26.664 39.327C26.466 39.801 26.484 40.031 26.844 41.627C27.062 42.601 27.279 43.517 27.324 43.663C27.392 43.876 27.158 44.003 26.101 44.325C25.382 44.543 24.498 44.77 24.136 44.827L23.477 44.932L23.317 44.322C23.23 43.988 23.01 43.112 22.828 42.375C22.391 40.599 22.218 40.191 21.775 39.901C21.437 39.68 21.277 39.688 19.949 39.996C19.148 40.182 18.209 40.432 17.863 40.552L17.234 40.77L16.814 39.17C16.584 38.29 16.372 37.468 16.342 37.343C16.3 37.17 16.749 37.02 18.215 36.713C20.778 36.177 20.883 36.076 20.637 34.391C20.537 33.71 20.257 32.393 20.014 31.464L19.572 29.776L20.135 29.683C20.7966 29.566 21.457 29.442 22.116 29.311C22.896 29.158 23.578 29.075 23.633 29.127C23.687 29.178 23.986 30.213 24.297 31.426H24.298ZM52.625 30.716C51.375 31.012 49.559 32.606 49.213 33.712C49.145 33.928 48.923 34.304 48.718 34.549C48.228 35.136 48.13 35.579 48.228 36.797C48.383 38.726 49.715 40.68 51.271 41.262C52.367 41.672 53.233 41.672 54.561 41.262C55.331 41.025 55.754 40.783 56.148 40.357C56.444 40.037 57.04 39.396 57.473 38.932C58.442 37.894 58.9 36.755 58.9 35.386C58.9 34.056 58.54 33.081 57.7 32.148C56.694 31.028 55.66 30.555 54.262 30.576C53.65 30.585 52.914 30.648 52.625 30.716ZM55.205 32.746C56.447 33.31 56.969 34.331 56.818 35.901C56.691 37.224 55.658 38.14 54.174 38.241C52.932 38.325 52.033 37.836 51.524 36.801C50.965 35.665 50.918 34.974 51.338 34.105C52.022 32.692 53.75 32.085 55.205 32.746Z" fill="black"/>
<path fill-rule="evenodd" clip-rule="evenodd" d="M25.11 6.01199C23.296 6.88599 22.255 9.09399 22.867 10.765C22.994 11.112 23.328 12.034 23.609 12.813C23.89 13.593 24.365 14.823 24.664 15.547C24.964 16.27 25.162 16.908 25.106 16.964C24.999 17.072 22.723 17.494 16.456 18.567C14.384 18.922 11.619 19.451 10.313 19.742C9.00702 20.033 7.51302 20.348 6.99302 20.442C5.63002 20.69 4.45902 21.311 3.90002 22.082C3.64102 22.44 2.76002 24.066 1.94202 25.695C0.851017 27.87 0.455017 28.817 0.455017 29.253C0.455017 31.631 1.92102 38.691 3.50302 43.926C3.96302 45.453 5.30102 50.493 5.98902 53.3C6.61302 55.845 8.24502 60.667 8.82902 61.69C9.52602 62.912 10.472 64.049 11.032 64.339C11.304 64.479 12.207 64.732 13.04 64.9L14.554 65.206L16.051 64.817C16.874 64.603 19.036 64.035 20.856 63.555C24.032 62.717 26.556 62.059 31.489 60.782C32.745 60.457 34.447 60.007 35.27 59.782C36.093 59.558 38.68 58.902 41.02 58.324C43.36 57.747 46.23 56.939 47.4 56.529C49.64 55.744 54.913 54.113 58.327 53.15C59.441 52.836 60.691 52.407 61.104 52.198C61.543 51.975 62.697 50.991 63.883 49.828C64.998 48.735 66.061 47.736 66.246 47.61C66.431 47.484 66.808 46.956 67.085 46.437C67.49 45.677 67.618 45.194 67.745 43.961L67.901 42.43L66.377 37.152C65.54 34.25 64.442 30.102 63.937 27.937C63.433 25.771 62.947 23.808 62.859 23.577C62.77 23.345 62.52 22.317 62.303 21.292C61.81 18.959 60.279 14.46 59.685 13.597C59.184 12.868 58.447 12.267 57.673 11.955C56.977 11.675 55.001 11.806 52.283 12.315C51.114 12.533 48.775 12.897 47.085 13.123C45.395 13.35 42.595 13.813 40.862 14.153C39.13 14.492 36.655 14.951 35.364 15.173C34.073 15.395 32.854 15.617 32.657 15.666C32.339 15.746 32.271 15.668 32.067 14.994C31.941 14.574 31.468 13.274 31.017 12.104C30.567 10.934 29.917 9.19799 29.575 8.24399C28.762 5.98399 28.527 5.74499 27.038 5.68099C26.09 5.64099 25.763 5.69599 25.109 6.01099L25.11 6.01199ZM27.147 8.03199C27.418 8.15599 27.647 8.48599 27.863 9.05999C28.037 9.52499 28.368 10.276 28.598 10.73C28.97 11.461 30.268 14.96 30.488 15.818C30.563 16.116 30.448 16.171 29.196 16.434C28.329 16.616 27.74 16.67 27.599 16.58C27.476 16.501 27.21 16.047 27.009 15.57C26.807 15.094 26.345 14.03 25.982 13.207C25.628 12.4055 25.2767 11.6028 24.928 10.799L24.535 9.88799L24.883 9.16899C25.227 8.45799 25.961 7.85299 26.48 7.85199C26.628 7.85199 26.928 7.93199 27.147 8.03199ZM57.41 14.063C57.832 14.34 58.816 16.187 59.35 17.705C59.535 18.229 59.894 19.683 60.148 20.935C61.261 26.424 62.846 32.796 64.574 38.728C66.101 43.973 66.102 43.753 64.544 46.06C63.181 48.081 62.096 49.332 60.965 50.186C60.133 50.815 58.242 51.624 57.01 51.878C56.018 52.083 50.536 53.693 47.558 54.654C45.955 55.171 42.907 56.018 40.784 56.537C33.395 58.341 31.716 58.739 30.15 59.054C29.284 59.228 27.122 59.757 25.345 60.228C21.802 61.169 16.198 62.548 14.711 62.846C11.926 63.403 10.901 62.326 9.14902 57.002C8.70802 55.659 7.95502 53.072 7.47702 51.252C7.00002 49.432 6.20702 46.562 5.71502 44.872C5.22302 43.182 4.65402 41.126 4.45002 40.303C4.24602 39.48 3.86602 38.027 3.60502 37.073C3.25982 35.7674 2.94308 34.4544 2.65502 33.135C2.09002 30.523 2.12502 29.908 2.93802 28.173C3.24302 27.523 3.82902 26.225 4.24102 25.289C4.65302 24.353 5.11902 23.444 5.27702 23.27C5.74502 22.753 7.68902 21.925 9.04102 21.666C9.73402 21.533 11.293 21.27 12.506 21.079C13.719 20.889 15.952 20.526 17.469 20.272C18.985 20.018 21.537 19.601 23.139 19.345C29.468 18.337 30.168 18.213 30.779 17.995C31.837 17.614 41.601 15.895 48.109 14.943C50.535 14.588 53.264 14.161 54.174 13.994C55.994 13.66 56.821 13.678 57.41 14.064V14.063Z" fill="#323239"/>
</g>
</g>
</g>
<defs>
<clipPath id="clip0_14_871">
<rect width="69" height="69" fill="white" transform="translate(0.140015 0.5)"/>
</clipPath>
<clipPath id="clip1_14_871">
<rect width="69" height="69" fill="white" transform="translate(0.140015 0.5)"/>
</clipPath>
<clipPath id="clip2_14_871">
<rect width="69" height="69" fill="white" transform="translate(0.140015 0.5)"/>
</clipPath>
</defs>
</svg>
