<svg width="61" height="60" viewBox="0 0 61 60" fill="none" xmlns="http://www.w3.org/2000/svg">
<g clip-path="url(#clip0_14_433)">
<g clip-path="url(#clip1_14_433)">
<path d="M34.468 1.654C33.552 1.366 32.487 1.284 31.168 1.433C31.043 1.44898 30.9167 1.41515 30.8164 1.33881C30.7161 1.26247 30.6499 1.14976 30.632 1.025C30.6255 0.963145 30.6314 0.900619 30.6492 0.841045C30.6671 0.781471 30.6966 0.726033 30.736 0.677944C30.7755 0.629856 30.824 0.590072 30.879 0.5609C30.9339 0.531728 30.9941 0.513746 31.056 0.507999C32.476 0.346999 33.687 0.428999 34.767 0.767999C35.85 1.108 36.769 1.695 37.617 2.502C39.067 3.879 39.98 5.715 40.331 7.597C40.761 9.908 39.811 12.001 39.811 14.281C39.811 15.091 40.634 15.602 41.111 16.164C41.943 17.144 40.981 19.641 40.644 20.666C40.289 21.746 39.717 23.201 39.661 24.344V24.357C39.885 24.787 40.418 25.027 40.761 25.357C41.998 26.55 42.388 28.291 42.388 29.826C42.388 30.953 41.897 31.786 41.044 32.476C40.624 32.815 40.186 33.118 39.712 33.376C39.711 33.84 39.708 34.842 39.702 35.975C39.6974 37.4281 39.6797 38.8812 39.649 40.334C39.601 42.071 39.868 44.148 40.123 45.879C40.198 46.392 40.279 46.864 40.341 47.207C40.412 47.597 41.002 47.507 41.356 47.625C41.943 47.821 42.357 48.232 42.536 48.825C42.785 49.657 43.053 50.482 43.248 51.329C43.533 52.574 44.792 52.759 45.593 53.531C46.047 53.969 46.218 54.796 46.46 55.376C47.056 56.808 44.779 57.242 43.863 57.561C41.107 58.521 38.35 58.601 35.454 58.561C35.3917 58.5613 35.3299 58.5492 35.2722 58.5256C35.2145 58.5019 35.1621 58.4672 35.1179 58.4232C35.0737 58.3793 35.0386 58.3271 35.0146 58.2695C34.9906 58.212 34.9781 58.1503 34.978 58.088C34.9835 57.9624 35.0379 57.844 35.1297 57.7582C35.2216 57.6724 35.3434 57.626 35.469 57.629C38.218 57.667 40.857 57.62 43.474 56.706C43.727 56.617 45.728 56.121 45.562 55.723C45.345 55.199 45.144 54.658 44.875 54.158C44.329 53.684 43.591 53.482 43.03 53.02C42.555 52.63 42.437 52.114 42.307 51.543L42.299 51.509C42.111 50.689 41.849 49.889 41.607 49.084C41.436 48.516 40.839 48.424 40.327 48.355C39.669 48.267 39.514 48.057 39.389 47.367C39.326 47.017 39.243 46.536 39.166 46.01C38.904 44.233 38.633 42.094 38.683 40.309C38.711 39.328 38.726 37.529 38.735 35.969C38.742 34.802 38.745 33.773 38.745 33.331C38.745 33.089 38.753 32.822 38.997 32.694C40.093 31.974 41.421 31.331 41.421 29.826C41.421 28.405 41.055 26.958 40.077 26.016C39.648 25.602 39.081 25.322 38.797 24.774C38.331 23.875 39.406 21.348 39.706 20.434C39.909 19.816 40.888 17.373 40.363 16.754C39.718 15.994 38.844 15.384 38.844 14.281C38.844 12.068 39.796 9.997 39.38 7.762C39.06 6.045 38.229 4.391 36.939 3.165C36.175 2.439 35.381 1.94 34.468 1.654Z" fill="#FF73E5"/>
<path fill-rule="evenodd" clip-rule="evenodd" d="M37.758 14.755C38.652 10.662 39.221 2.98199 31.869 1.79799C25.685 0.801991 23.124 8.95199 22.238 13.611L20.5 15.477L19.08 24.18C18.501 24.44 17.343 25.393 17.343 27.134C17.343 28.874 17.975 30.035 18.29 30.398C18.027 32.159 17.659 36.118 18.29 37.858C18.61 38.738 19.393 39.415 20.443 39.94L20.197 49.212L18.002 49.828L16.904 53.202L15.806 53.564L14.343 56.104C16.712 56.674 23.027 58.155 29.343 58.28C35.659 58.404 41.975 56.259 44.343 55.378L43.977 54.025L42.148 52.476L41.05 49.937C40.684 49.212 40.092 48.611 39.587 48.487C39.049 48.354 38.831 48.829 38.527 47.895L38.343 47.341C37.964 46.221 37.553 36.823 37.396 32.263C37.396 32.263 38.186 32.232 38.816 32.108C39.606 31.952 40.869 30.398 40.869 28.538C40.319 26.361 38.825 25.273 37.396 25.273C38.222 21.804 39.111 18.87 39.221 18.381C39.537 16.982 38.705 15.121 37.758 14.754V14.755ZM34.83 32.891C33.863 36.745 33.608 40.172 33.366 40.411C32.735 41.032 29.523 40.974 26.049 40.508C24.441 40.292 22.671 39.912 21.293 39.42C21.699 41.309 23.459 44.853 27.447 46.098C32.627 47.715 33.99 46.363 34.464 45.223L34.83 32.891Z" fill="white"/>
<path fill-rule="evenodd" clip-rule="evenodd" d="M22.58 13.262C21.27 14.376 20.573 14.48 20.704 15.772C20.718 15.909 21.194 17.187 21.126 17.481C20.869 18.585 20.663 19.701 20.401 20.804C20.205 21.627 20.364 22.005 20.906 22.005C21.684 22.005 21.557 20.884 22.342 20.884C23.918 21.411 23.242 23.594 22.177 23.793C22.177 23.793 21.854 23.823 21.487 23.793C20.795 23.737 21.173 21.973 20.395 22.5C20.129 22.68 17.564 26.298 17.557 26.95C17.537 28.94 18.897 29.902 19.731 27.16C20.046 26.856 20.277 27.16 20.277 27.16C20.361 27.461 20.482 27.687 20.611 27.785C21.171 28.211 21.485 28.526 21.6 29.091C21.77 29.932 21.635 30.77 21.186 31.573C20.843 32.185 20.134 31.946 19.692 31.46C19.692 31.46 18.574 34.275 18.554 34.872C18.511 36.156 18.974 37.155 18.925 38.476C18.911 38.851 18.937 38.92 19.195 39.177C19.548 39.53 20.043 40.325 20.395 40.392C20.41 43.516 20.395 45.887 20.051 50.002C20.051 50.002 18.21 49.877 17.972 50.09C17.584 50.438 17.246 52.631 17.246 52.631L18.526 53.111C17.766 53.36 16.391 53.413 15.743 53.795C15.261 54.079 14.343 55.898 14.343 55.898C16.243 57.798 20.428 57.395 22.966 57.798C24.389 58.023 29.213 58.286 29.213 58.286C29.379 57.333 29.727 56.836 29.883 55.876C31.407 55.876 38.239 55.468 38.239 53.226C38.239 53.073 38.076 52.996 37.755 52.996C34.876 53.879 32.38 53.879 30.46 54.062V52.286C33.296 52.274 36.843 51.857 40.057 50.357C40.387 50.211 41.1 49.392 40.267 48.864C39.794 48.564 39.081 49.066 38.61 49.18C37.94 49.343 35.986 49.928 35.138 50.002C35.138 44.572 35.148 38.505 35.442 33.062C36.147 33.166 36.969 33.307 37.663 33.118C37.938 33.043 38.164 32.548 38.217 31.905L38.257 31.415C37.627 30.96 36.377 31.053 36.375 28.903C36.372 26.753 38.576 26.95 38.576 26.95C39.795 25.879 37.169 24.968 36.378 24.968C34.687 24.968 33.026 26.587 32.522 28.05C32.028 29.482 31.881 31.641 33.016 32.791C33.112 32.889 33.122 33.221 33.07 34.764C33.07 36.339 33.132 38.124 32.879 38.894C32.626 39.664 32.155 39.892 31.658 39.651C29.168 38.441 26.335 38.162 23.608 38.134C22.368 38.121 21.315 38.089 21.27 38.061C20.788 37.774 21.581 37.51 21.745 37.492C22.49 37.412 25.21 37.406 27.808 37.481C31.038 37.574 28.805 36.526 26.73 36.215C25.275 35.997 23.043 35.951 21.846 36.148C21.379 36.225 20.988 36.254 20.948 36.215C20.875 36.145 21.186 33.649 21.186 33.649C21.186 33.649 23.391 33.899 24.396 31.46C25.368 29.464 24.246 27.113 22.131 26.482C21.641 26.335 21.6 26.305 21.6 26.096C21.6 25.808 21.715 25.721 22.178 25.665C23.133 25.547 24.414 24.144 24.747 23.283C25.245 21.995 24.635 20.363 23.162 20.162C22.882 20.123 22.613 20.055 22.566 20.009C22.227 19.681 22.816 17.933 22.889 17.469C22.954 17.058 23.592 17.105 23.918 17.049C27.097 16.508 30.14 17.339 33.226 17.877C34.509 18.101 36.198 18.563 37.37 19.119C37.761 19.305 40.022 19.849 39.57 18.699C39.041 17.353 34.003 16.355 32.775 16.077C29.955 15.44 26.985 14.786 24.118 15.214C23.674 15.322 23.162 15.411 23.162 15.411C23.162 15.411 23.538 14.955 24.118 14.376C24.895 13.6 24.926 13.593 27.518 13.583C30.555 13.572 33.411 14.253 36.223 15.411C36.693 15.605 37.161 15.781 37.625 15.999C38.187 16.263 38.7 16.479 38.765 16.479C38.95 16.479 39.09 16.259 39.035 16.049C38.991 15.879 38.197 14.987 37.663 14.574C35.861 13.181 33.519 12.389 31.031 12.061C25.388 11.319 27.519 3.42801 27.519 3.42801C23.89 5.42601 24.167 12.138 22.58 13.262ZM22.58 40.983C22.436 40.983 22.418 41.018 22.464 41.203C23 43.382 25.746 44.684 27.748 45.22C28.957 45.544 32.48 46.084 33.49 45.117C33.959 44.67 33.674 42.465 33.698 41.778C30.608 42.612 25.613 42.141 22.579 40.984L22.58 40.983Z" fill="black"/>
<path fill-rule="evenodd" clip-rule="evenodd" d="M25.714 3.15001C23.804 5.11401 22.129 9.32301 22.129 12.174C22.129 12.607 22.103 12.644 21.065 13.738C19.434 15.318 19.849 16.949 19.849 16.949C19.849 16.949 19.895 17.217 19.707 18.204C19.602 18.752 19.522 19.677 19.434 20.053C19.2876 20.6792 19.1476 21.3069 19.014 21.936C18.749 23.194 18.493 23.421 18.205 23.724C17.048 24.941 16.749 25.864 16.75 27.03C16.751 27.575 17.222 28.36 17.474 28.708C17.621 28.912 17.652 29.082 17.672 29.817C17.686 30.294 17.758 30.947 17.834 31.267C17.96 31.801 17.961 31.925 17.848 32.777C17.703 33.868 17.69 35.497 17.813 37.137C17.939 38.815 17.968 38.864 19.426 39.897L20.108 40.38L20.055 41.475C20.025 42.077 19.943 43.058 19.873 43.655C19.747 44.719 19.751 45.435 19.896 47.811L19.946 48.634H19.698C19.226 48.634 18.154 49.106 17.72 49.506C17.354 49.843 17.298 49.941 17.15 50.522C16.886 51.552 16.735 52.325 16.762 52.514C16.784 52.672 16.741 52.694 16.336 52.738C15.589 52.817 15.426 52.955 15.019 53.855C14.869 54.185 14.592 54.715 14.403 55.029C13.932 55.814 13.817 56.254 13.991 56.613C14.228 57.102 14.773 57.253 17.928 57.711C18.556 57.803 19.382 57.945 19.763 58.028C20.145 58.111 20.86 58.252 21.353 58.343C24.003 58.83 24.112 58.845 26.696 59.081C28.554 59.25 32.574 59.055 34.049 58.725C34.333 58.661 34.768 58.586 35.014 58.558C35.261 58.529 35.701 58.455 35.993 58.394L37.543 58.068C38.103 57.951 38.8 57.786 39.092 57.701C40.049 57.424 42.062 56.921 42.436 56.867C43.066 56.774 44.176 56.455 44.601 56.242C45.148 55.969 45.245 55.772 45.184 55.056C45.114 54.224 44.922 53.91 43.945 53.018C43.008 52.162 42.82 51.864 42.368 50.522C42.013 49.469 41.688 48.831 41.377 48.572C41.144 48.379 40.356 48.012 39.887 47.879C39.194 47.682 39.207 47.716 38.893 45.422C38.829 44.958 38.755 43.765 38.727 42.772C38.7 41.777 38.639 40.621 38.593 40.202C38.546 39.782 38.498 37.946 38.486 36.121L38.463 32.804C40.732 32.756 41.52 30.806 41.733 28.742C41.937 26.764 40.093 25.436 38.439 24.759C38.439 24.008 39.215 21.125 39.548 19.915C40.701 19.702 40.269 17.023 39.956 16.235C39.6988 15.5624 39.3122 14.9468 38.818 14.423C39.567 9.81901 40.031 4.08101 35.225 1.64401C32.485 0.254008 28.119 0.675009 25.714 3.15001ZM32.723 3.65101C35.839 4.84601 36.578 5.45101 37.023 8.92101C37.266 10.814 36.863 12.551 36.727 14.423C36.684 15.023 37.265 15.397 37.463 15.524C37.939 15.832 38.471 16.939 38.44 18.344C37.72 18.624 37.375 19.12 37.265 19.915C37.063 21.381 35.927 24.351 36.428 25.856C36.686 26.172 37.486 26.534 38.229 26.849C40.106 27.257 40.41 29.507 39.215 30.749C38.82 31.16 37.598 31.313 37.125 31.453C36.92 31.513 36.677 31.633 36.585 31.718C36.42 31.87 36.417 31.938 36.428 35.673C36.433 37.826 36.375 40.046 36.428 40.547C36.478 41.033 36.555 42.37 36.6 43.519C36.659 45.042 36.734 45.922 36.878 46.771C37.088 48.015 37.137 48.148 37.579 48.688C37.889 49.068 38.906 49.112 39.55 49.301C40.16 49.478 40.46 49.652 40.59 49.901C40.652 50.021 40.84 50.536 41.006 51.044C41.172 51.552 41.335 52.004 41.367 52.048C41.4 52.092 41.53 52.374 41.657 52.675C41.821 53.064 41.966 53.274 42.16 53.404C42.71 53.772 43.659 54.736 43.659 54.926C43.659 55.095 43.586 55.126 42.823 55.296C41.555 55.577 40.113 55.924 39.296 56.145C37.779 56.555 35.504 57.044 34.443 57.187C34.129 57.2341 33.8163 57.2887 33.505 57.351C31.358 57.778 26.592 57.778 24.045 57.349C22.474 57.086 20.998 56.814 20.335 56.667C19.555 56.495 17.934 56.225 17.195 56.145C16.8476 56.1027 16.5023 56.045 16.16 55.972L15.615 55.852L15.89 55.392C16.04 55.138 16.188 54.835 16.218 54.717C16.316 54.334 16.585 54.141 17.249 53.979C17.786 53.847 17.923 53.839 18.215 53.926C18.88 54.122 21.891 54.652 22.357 54.656C22.809 54.658 23.401 54.511 23.525 54.366C23.675 54.187 23.49 53.886 23.114 53.697C22.804 53.542 21.861 53.28 20.64 53.012C19.19 52.693 18.962 52.638 18.598 52.52C18.307 52.426 18.217 52.36 18.243 52.26C18.263 52.188 18.363 51.773 18.467 51.339C18.674 50.469 18.781 50.339 19.167 50.491C19.769 50.728 22.888 51.283 23.621 51.284C24.206 51.284 24.598 51.149 24.69 50.914C24.752 50.754 24.778 50.782 24.363 50.576C24.01 50.401 23.557 50.278 22.088 49.958C20.68 49.652 20.816 49.712 20.95 49.458C21.015 49.336 21.067 49.206 21.068 49.168C21.068 49.132 21.142 49.009 21.231 48.897C21.426 48.653 21.439 48.241 21.301 46.617C21.229 45.772 21.23 45.237 21.306 44.324C21.64 40.299 21.645 40.099 21.41 39.668C21.31 39.484 20.775 38.996 20.673 38.996C20.573 38.996 19.682 38.157 19.682 38.064C19.682 38.018 20.058 37.824 20.518 37.633C20.978 37.442 21.498 37.175 21.673 37.04L21.992 36.794L21.754 36.694C21.426 36.556 20.782 36.564 20.25 36.711C20.0625 36.7649 19.873 36.8116 19.682 36.851C19.502 36.876 19.417 34.365 19.572 33.591C19.632 33.289 19.682 32.91 19.683 32.747C19.685 32.415 19.741 32.301 19.943 32.228C20.018 32.201 20.141 32.088 20.215 31.976C20.345 31.781 20.338 31.75 20.042 31.148C19.635 30.322 19.58 29.642 19.849 28.782C19.951 28.459 20.123 28.061 20.233 27.897C20.393 27.657 20.421 27.541 20.378 27.289C20.326 26.983 20.331 26.975 20.656 26.849C20.945 26.738 20.986 26.689 20.986 26.469C20.986 26.259 20.941 26.199 20.704 26.102C20.231 25.907 20.021 25.952 19.641 26.327C19.377 26.587 19.281 26.754 19.236 27.03C19.164 27.472 18.86 28.146 18.73 28.15C18.678 28.153 18.611 28.037 18.582 27.893C18.5474 27.7289 18.5009 27.5674 18.443 27.41C18.314 27.081 18.56 26.314 19.014 25.629C19.221 25.317 19.41 25.044 19.434 25.022C19.458 25 19.689 24.758 19.947 24.486C20.315 24.096 20.417 23.933 20.422 23.723C20.428 23.438 20.726 22.713 20.736 22.956C20.746 23.208 21.133 23.869 21.396 24.088C21.716 24.352 21.996 24.356 22.254 24.102C22.506 23.854 22.506 23.709 22.251 23.238C22.001 22.777 21.996 22.519 22.221 21.87C22.383 21.405 22.884 20.605 23.014 20.605C23.105 20.605 23.596 20.139 23.596 20.053C23.596 19.89 23.332 19.721 23.081 19.723C21.709 19.723 21.026 21.247 21.026 21.247C21.222 20.051 21.709 18.204 21.798 17.078C21.826 17.033 22.198 16.941 22.623 16.874C23.721 16.7 24.633 16.451 24.909 16.25C25.039 16.154 25.146 16.051 25.146 16.02C25.146 15.989 25.02 15.854 24.866 15.72C24.346 15.271 23.552 15.218 21.936 15.524C21.723 15.564 21.71 15.554 21.789 15.409C21.958 15.098 22.749 14.379 23.069 14.246C23.247 14.172 23.916 13.946 24.556 13.744C26.194 13.227 26.353 12.429 24.556 12.429C24.553 11.254 24.881 10.273 25.213 9.17101C26.251 5.73001 27.716 2.64801 32.723 3.65101Z" fill="#323239"/>
</g>
</g>
<defs>
<clipPath id="clip0_14_433">
<rect width="60" height="60" fill="white" transform="translate(0.199997)"/>
</clipPath>
<clipPath id="clip1_14_433">
<rect width="60" height="60" fill="white" transform="translate(0.199997)"/>
</clipPath>
</defs>
</svg>
