<svg width="71" height="70" viewBox="0 0 71 70" fill="none" xmlns="http://www.w3.org/2000/svg">
<g clip-path="url(#clip0_14_954)">
<g clip-path="url(#clip1_14_954)">
<mask id="mask0_14_954" style="mask-type:luminance" maskUnits="userSpaceOnUse" x="1" y="0" width="70" height="70">
<path d="M8.34357 0.422729L70.2196 7.39824L63.2441 69.2743L1.36806 62.2988L8.34357 0.422729Z" fill="white"/>
</mask>
<g mask="url(#mask0_14_954)">
<mask id="mask1_14_954" style="mask-type:luminance" maskUnits="userSpaceOnUse" x="1" y="0" width="70" height="70">
<path d="M8.34357 0.422729L70.2196 7.39824L63.2441 69.2743L1.36806 62.2988L8.34357 0.422729Z" fill="white"/>
</mask>
<g mask="url(#mask1_14_954)">
<path fill-rule="evenodd" clip-rule="evenodd" d="M39.57 6.664C38.757 6.572 37.738 6.498 36.971 6.85C36.8454 6.9077 36.7096 6.93996 36.5715 6.94493C36.4334 6.94989 36.2957 6.92747 36.1663 6.87894C36.0369 6.83041 35.9183 6.75674 35.8175 6.66218C35.7168 6.56763 35.6357 6.45405 35.579 6.328C35.4634 6.07283 35.4532 5.78232 35.5508 5.51972C35.6484 5.25713 35.8458 5.04373 36.1 4.926C37.225 4.409 38.602 4.426 39.806 4.562C40.885 4.683 41.921 4.715 43.091 4.802C47.335 5.12 51.418 6.707 54.059 10.214C55.583 12.237 57.283 14.806 57.689 17.323C58.079 19.738 58.131 21.958 58.155 24.379C58.161 24.923 58.168 25.518 58.122 26.135C59.873 27.505 59.095 31.096 58.876 33.034C58.778 33.9 58.636 34.761 58.505 35.623C59.495 37.077 60.09 38.726 60.663 40.379C61.237 42.036 61.967 44.142 61.971 46.111C61.976 48.534 61.965 51.155 61.031 53.433C60.681 54.287 60.135 55.25 59.323 55.807C58.991 56.034 58.376 56.328 57.933 56.532C57.625 56.674 57.431 56.724 57.273 57.02C57.067 57.402 56.758 57.93 56.335 58.537C54.309 61.447 51.287 63.751 48.002 65.04C47.071 65.405 45.972 65.604 44.412 65.782C44.1379 65.8039 43.8661 65.7183 43.6541 65.5433C43.4421 65.3683 43.3065 65.1177 43.2761 64.8444C43.2456 64.5712 43.3228 64.2968 43.4911 64.0795C43.6595 63.8621 43.9058 63.7189 44.178 63.68C45.709 63.506 46.578 63.33 47.242 63.07C50.119 61.94 52.837 59.876 54.615 57.325C54.985 56.794 55.252 56.335 55.425 56.015C55.508 55.859 55.59 55.701 55.663 55.539C55.894 54.997 56.573 54.833 57.061 54.609C57.549 54.384 57.986 54.166 58.141 54.059C58.436 53.857 58.785 53.367 59.088 52.628C59.913 50.618 59.874 48.251 59.87 46.118C59.866 44.386 59.146 42.448 58.505 40.575C57.985 39.055 57.431 37.695 56.559 36.523C56.293 36.165 56.355 35.773 56.419 35.365C56.548 34.519 56.689 33.675 56.785 32.825C56.969 31.191 57.243 29.409 56.814 27.793C56.358 27.463 55.86 27.237 55.964 26.544C56.066 25.862 56.061 25.17 56.054 24.376C56.029 22.062 55.987 19.973 55.614 17.666C55.266 15.508 53.694 13.231 52.384 11.493C50.109 8.473 46.574 7.184 42.932 6.912C41.885 6.834 40.691 6.79 39.57 6.664Z" fill="#0CE51C"/>
<path fill-rule="evenodd" clip-rule="evenodd" d="M51.567 14.492C50.961 13.371 48.906 10.813 45.533 9.554C41.316 7.98 36.84 7.475 35.018 7.82C33.194 8.164 27.644 11.11 24.486 15.973C21.96 19.864 20.835 21.971 20.588 22.539L19.458 22.823C18.561 23.867 16.606 26.678 15.95 29.571C15.294 32.463 15.086 36.021 15.063 37.437C13.43 38.123 9.99002 40.052 9.29902 42.282C9.14202 42.789 8.96902 43.321 8.79102 43.866C7.99102 46.322 7.10102 49.051 7.22102 50.976C7.36702 53.327 11.652 59.166 14.513 60.588C17.373 62.01 21.501 63.162 23.852 63.015C25.732 62.897 27.42 61.815 28.029 61.288C28.976 62.218 31.466 64.175 33.839 64.553C36.808 65.025 40.197 65.407 41.932 64.641C43.319 64.028 45.264 63.506 46.062 63.321C47.656 62.585 51.118 60.621 52.218 58.658C53.318 56.694 53.967 55.33 54.153 54.893C54.866 55.065 56.501 55.02 57.335 53.466C58.378 51.523 58.839 46.218 57.968 44.197C57.271 42.58 54.974 38.274 53.912 36.323C54.322 35.133 55.088 32.472 54.885 31.35C54.682 30.228 54.301 28.812 54.137 28.244C54.22 26.697 54.263 22.984 53.773 20.511C53.283 18.038 52.098 15.469 51.567 14.493V14.492ZM27.253 37.712L23.263 36.575C23.893 34.631 25.321 30.489 25.986 29.465C26.5765 28.5624 27.1809 27.6689 27.799 26.785L27.936 25.564C28.778 23.782 31.264 19.923 34.472 18.746C37.681 17.57 40.824 16.806 41.995 16.573C42.447 16.623 43.446 17.34 43.828 19.801C44.21 22.261 44.523 25.007 44.632 26.073C44.314 26.861 43.563 28.727 43.103 29.883C42.643 31.041 41.964 32.273 41.683 32.745C40.342 32.457 37.033 32.084 34.525 32.9C32.015 33.716 28.632 36.448 27.253 37.712Z" fill="white"/>
<path fill-rule="evenodd" clip-rule="evenodd" d="M34.073 7.43298C29.338 8.53498 24.173 15.166 21.005 21.259C20.979 21.491 21.792 23.939 22.049 24.209C22.416 24.596 22.572 24.634 23.062 24.461C23.311 24.373 23.892 23.921 24.57 22.847C25.909 20.727 27.71 19.307 30.262 17.125C34.322 13.655 39.47 11.41 42.864 17.273C43.825 18.933 44.365 21.233 44.639 23.923C44.974 27.218 42.906 28.096 42.481 31.866C42.481 31.866 41.112 31.793 40.389 31.645C38.038 31.165 34.597 31.868 32.352 33.287C30.032 34.753 27.752 37.094 26.224 39.577L25.494 40.764C24.809 40.53 24.504 40.219 23.329 40.086C22.309 39.971 21.089 39.652 19.4 40.718C18.415 41.339 17.458 42.732 17.104 44.292C16.935 45.042 17.555 45.119 18.062 44.4C18.544 43.718 19.481 43.663 20.363 43.371C21.266 43.073 24.101 43.793 24.101 43.793C24.101 43.793 23.137 47.215 22.929 48.961C22.742 50.521 22.748 50.673 23.025 51.693C23.608 53.833 24.295 55.91 24.635 56.565C25.033 57.328 25.01 57.362 23.916 57.585C22.741 57.824 20.937 57.423 18.487 56.38C17.469 55.946 17.081 55.677 15.697 54.447C14.667 53.531 13.759 52.575 13.169 51.783C12.375 50.717 12.172 50.318 11.696 48.88C11.092 47.058 10.858 45.575 10.916 43.92C10.946 42.997 11.02 42.677 11.443 41.621C12.434 39.151 11.543 38.768 9.07801 42.735C8.05801 44.377 7.73901 49.221 7.81001 51.179C7.94701 54.926 12.41 59.398 16.153 61.339C21.093 63.902 25.714 63.064 28.108 61.057C30.146 62.927 32.094 63.537 33.88 64.255C35.261 64.811 37.608 65.161 39.09 65.033C40.126 64.943 42.474 62.869 40.92 62.501C38.72 61.981 36.893 61.192 35.065 58.123C34.162 56.606 33.87 55.89 33.413 54.065C33.119 52.897 32.717 51.322 32.809 50.501L33.092 47.988C32.972 47.923 30.539 47.821 30.098 47.822C28.038 47.824 30.188 43.754 30.684 42.626C31.324 41.167 33.629 39.695 35.472 38.076C38.166 35.707 43.373 35.148 45.597 32.216C49.839 25.384 46.907 13.4 40.829 9.09398C39.723 8.31098 34.909 7.23798 34.073 7.43298ZM19.214 22.97C18.678 23.566 18.324 24.167 18.281 24.55C18.261 24.735 18.059 25.265 17.835 25.728C16.942 27.571 15.537 32.65 15.273 34.985C15.178 35.83 15.198 36.068 15.385 36.318C15.789 36.861 16.655 36.694 16.989 36.01C17.071 35.842 17.493 34.424 17.926 32.86C18.722 29.982 20.026 26.838 21.243 24.38C21.703 23.452 20.521 21.513 19.214 22.97Z" fill="black"/>
<path d="M41.734 49.974C42.088 48.26 43.124 46.878 44.489 46.3C45.189 46.004 45.426 45.968 46.006 46.075C47.344 46.323 48.558 47.774 48.606 49.185C48.638 50.144 48.308 51.655 47.884 52.487C47.127 53.976 45.959 54.621 44.348 54.442C43.625 54.362 43.465 54.288 42.878 53.76C41.71 52.709 41.388 51.644 41.734 49.974Z" fill="#323239"/>
<path fill-rule="evenodd" clip-rule="evenodd" d="M37.162 5.514C35.452 5.442 33.118 6.581 31.695 7.276L31.665 7.29C26.501 9.812 22.361 15.234 20.422 20.512C20.422 20.512 19.139 20.186 18.29 21.532C16.432 24.477 14.786 28.721 13.97 33.7L13.663 36.423C11.113 37.98 9.57001 39.62 8.28801 42.391C5.66501 48.063 5.25301 55.138 10.303 59.098C14.232 62.178 20.653 66.285 27.463 63.417L28.01 62.997L28.97 63.635C30.174 64.435 31.952 65.32 33.136 65.708C34.708 66.224 37.374 66.302 39.144 66.236C40.734 66.176 42.425 65.364 43.17 64.893C46.966 64.722 50.95 63.313 53.833 58.617C54.375 57.735 54.939 56.636 54.939 56.636C55.708 56.722 57.695 55.194 58.109 54.619C58.981 53.409 59.381 51.856 59.735 48.786C60.24 44.302 58.406 39.68 56.002 36.079C56.38 35.183 56.452 34.454 56.532 33.657C56.579 33.193 56.628 32.707 56.74 32.151C57.412 28.823 55.937 19.879 54.872 16.77C53.178 11.825 49.752 8.616 45.812 7.088C43.999 6.385 39.608 5.618 37.162 5.514ZM47.127 10.663C51.774 13.485 52.696 18.029 53.171 23.296L48.258 21.462C48.241 19.966 48.102 18.783 47.978 18.095C47.255 15.414 43.994 10.611 43.254 11.476C42.93 11.856 43.147 12.074 43.571 12.5C44.238 13.168 46.121 16.704 46.513 19.832C46.513 19.832 46.636 20.57 46.698 21.648L44.938 22.451C44.616 17.138 41.263 12.571 35.923 12.889C34.221 13.129 33.056 13.479 31.74 14.567C30.383 15.687 30.02 16.144 30.192 16.513C30.457 17.078 30.842 16.95 32.28 15.818C33.806 14.618 34.758 14.361 36.223 14.22C37.603 14.086 40.444 15.18 40.544 15.679C40.567 15.793 40.439 15.839 40.176 15.809C38.87 15.662 35.801 16.661 33.988 17.825C32.008 19.095 29.068 22.052 28.015 23.834L27.495 24.713L25.243 24.368C24.005 24.179 22.943 23.963 22.943 23.963L21.957 21.946C21.957 21.946 24.051 17.584 25.431 15.82C27.991 12.547 31.705 9.579 34.467 8.598C36.723 7.796 39.343 8.326 41.649 8.792C43.547 9.176 45.455 9.648 47.127 10.662V10.663ZM44.95 24.228C44.822 27.002 44.027 30 42.532 32.828C42.34 32.981 41.777 33.312 41.282 33.563C40.208 34.107 37.932 35.759 35.966 37.423C34.798 38.411 34.33 38.928 33.315 40.353C31.782 42.505 31.247 43.421 30.609 44.984C29.998 46.484 30.011 46.783 30.705 47.06C31.553 47.4 31.98 47.09 32.601 45.692C33.626 43.382 35.532 40.902 37.368 39.495C38.358 38.735 40.4 37.705 41.722 37.295C42.574 37.032 44.222 36.893 45.182 37.005C47.229 37.242 49.496 38.191 50.973 39.428C53.803 41.797 55.481 45.418 55.465 49.131C55.457 50.836 55.409 51.735 55.128 53.029C55.044 53.269 55.112 53.401 55.383 53.431C56.955 53.609 57.005 48.156 56.972 47.432C56.845 44.641 55.584 40.92 53.276 37.695C52.388 36.453 52.503 36.131 52.746 35.621C53.289 33.709 53.532 29.788 53.336 25.684L48.206 23.45C48.1089 25.0469 47.8638 26.6314 47.474 28.183C46.949 30.52 46.494 31.243 44.722 31.995C44.722 31.995 45.998 28.271 46.504 25.538C46.635 24.828 46.699 24.104 46.722 23.419L44.95 24.228ZM41.972 18.381C44.296 22.663 43.695 26.195 41.675 30.074C38.83 29.754 36.157 30.028 33.576 31.389C31.428 32.521 29.552 34.109 27.85 35.823C26.887 35.599 26.82 35.577 25.882 35.26C26.552 32.473 27.752 30.622 29.219 28.362L29.221 28.358C29.411 28.066 29.604 27.768 29.801 27.459C29.983 27.175 29.907 26.542 29.85 26.065C29.824 25.848 29.801 25.663 29.809 25.558C29.929 23.909 33.424 20.445 36.125 19.058C38.069 18.06 40.142 17.626 41.223 17.722C41.559 17.752 41.695 17.872 41.972 18.381ZM20.634 24.411C20.964 25.399 21.517 25.854 23.357 26.061C25.074 26.255 26.679 26.212 26.867 26.681C25.538 28.545 23.987 31.8 23.381 34.191L23.301 34.518C23.224 34.85 23.177 35.054 23.051 35.18C22.855 35.38 22.467 35.39 21.467 35.416C21.28 35.421 21.072 35.426 20.84 35.434C19.219 35.484 17.836 35.7 16.959 36.036C16.671 36.146 16.379 36.231 16.31 36.223C16.175 36.208 16.35 35.012 16.875 32.387C17.228 30.612 17.621 29.25 18.204 27.772C18.757 26.369 20.065 23.257 20.149 23.144C20.327 23.164 20.466 23.913 20.633 24.412L20.634 24.411ZM39.73 32.713C39.607 32.791 38.955 33.192 38.282 33.603C37.608 34.013 36.252 35.005 35.267 35.807C32.548 38.02 31.086 39.924 29.768 42.967C28.695 45.444 28.432 46.953 28.946 47.683C29.372 48.288 31.209 48.843 31.88 48.569C32.12 48.471 32.141 48.54 32.125 49.387C32.069 52.282 32.305 53.871 33.137 56.186C33.956 58.463 34.477 59.339 35.649 60.413C37.321 61.943 38.811 63.132 40.208 63.51C39.338 64.026 37.446 63.947 36.506 63.542C32.234 61.705 29.219 55.784 28.532 51.353C28.419 50.623 28.299 49.866 28.265 49.673C28.227 49.461 28.105 49.311 27.954 49.294C27.248 49.214 27.194 52.412 27.86 54.847C28.435 56.953 29.419 59.7 30.996 61.431C31.496 61.979 31.885 62.445 31.861 62.466C31.773 62.546 30.017 61.303 29.346 60.778C26.971 58.92 25.556 56.386 24.682 52.428L24.387 51.092L24.745 47.97C25.091 44.956 25.121 44.806 25.608 43.666C27.085 40.213 29.168 37.577 32.1 35.456C33.82 34.209 35.248 33.446 36.548 33.078C37.576 32.786 39.255 32.5 39.686 32.544C39.919 32.568 39.925 32.588 39.73 32.713ZM49.295 40.569C53.731 43.423 54.728 49.029 53.263 53.769C52.66 55.724 51.923 57.112 50.738 58.531C46.618 63.463 40.464 63.751 36.474 58.644C34.454 56.056 33.439 53.51 33.937 49.094C34.608 41.646 43.332 36.024 49.295 40.569ZM26.363 37.992C26.415 38.034 26.136 38.571 25.743 39.184L25.03 40.3L24.36 40.178C23.782 40.072 23.639 40.098 23.303 40.371C22.786 40.792 22.835 41.091 23.495 41.531C23.796 41.731 24.066 41.926 24.095 41.963C24.124 41.999 24.056 42.264 23.945 42.551L23.743 43.071L23.066 42.8C21.986 42.367 20.85 42.397 19.551 42.894C18.951 43.124 18.463 43.28 18.467 43.241C18.471 43.201 18.74 42.781 19.064 42.307C19.672 41.417 19.739 41.01 19.286 40.959C18.259 40.843 16.87 43.063 16.628 45.205C16.213 48.889 19.038 53.142 22.422 53.928L23.312 54.134L23.634 55.213C24.066 56.658 24.961 58.349 26.067 59.805C26.567 60.465 26.976 61.018 26.974 61.035C26.972 61.053 26.699 61.189 26.367 61.337C24.877 62.001 23.093 62.092 20.787 61.621C15.612 60.564 10.33 56.812 8.97701 51.333C8.63101 49.937 9.31301 46.295 10.437 43.537C11.039 42.057 11.633 41.291 13.274 39.879C14.787 38.578 15.424 38.275 17.718 37.769C18.829 37.525 19.84 37.417 21.761 37.336C22.246 37.316 26.227 37.883 26.363 37.992ZM22.766 43.98L23.336 44.197L23.17 44.816C23.078 45.156 22.89 46.444 22.75 47.676C22.531 49.621 22.523 50.049 22.688 50.922C22.792 51.475 22.873 51.972 22.867 52.026C22.843 52.235 21.74 51.828 20.972 51.327C19.061 50.081 17.527 47.356 17.95 45.959C18.214 45.086 19.757 44.035 21.08 43.827C21.89 43.699 22.073 43.716 22.766 43.98Z" fill="#323239"/>
</g>
</g>
</g>
</g>
<defs>
<clipPath id="clip0_14_954">
<rect width="70" height="70" fill="white" transform="translate(0.519989)"/>
</clipPath>
<clipPath id="clip1_14_954">
<rect width="70" height="70" fill="white" transform="translate(0.519989)"/>
</clipPath>
</defs>
</svg>
